<svg id="Capa_1" data-name="Capa 1" xmlns="http://www.w3.org/2000/svg" viewBox="0 0 340.16 281.3"><defs><style>.cls-1{fill:#fff;}.cls-2{fill:#28797c;}.cls-3{fill:#0c343a;}</style></defs><title>logo svg</title><g id="_Grupo_" data-name="&lt;Grupo&gt;"><path class="cls-1" d="M106,42.76h11a28.69,28.69,0,0,1,14.17-22.28A28.71,28.71,0,0,0,106,42.76Z"/><path class="cls-1" d="M65.64,50.49A82.61,82.61,0,0,0,39.43,62.91H49.51a82.27,82.27,0,0,1,43-15.15c-1.67-.11-3.35-.16-5-.16A83,83,0,0,0,65.64,50.49Z"/><path class="cls-1" d="M49.75,75.48A8.5,8.5,0,0,0,44.62,82s0,0,0,.06c0,.22-.06.45-.08.69h-.05l-4.25,23.67,3.37-.3L46.66,89l1-5.68A8.83,8.83,0,0,1,48,81.53s0,0,0,0h0a8.49,8.49,0,0,1,8.11-6.08,8.42,8.42,0,0,0-3.1-.58A8.53,8.53,0,0,0,49.75,75.48Z"/><polygon class="cls-2" points="324.42 15.63 201.61 15.63 192.16 15.63 192.16 38.88 218.48 34.26 324.42 15.63"/><polygon class="cls-2" points="192.16 46.89 224.59 46.89 324.42 46.89 324.42 23.51 222.39 41.55 192.16 46.89"/><path class="cls-2" d="M123.53,131.62H108.7a6.54,6.54,0,0,0-6.54,6.54v5.44a6.53,6.53,0,0,0,6.54,6.53H117v-6.22a7.18,7.18,0,0,1,7.17-7.17h5.73A6.54,6.54,0,0,0,123.53,131.62Z"/><path class="cls-2" d="M120.24,88.43V75.34a4.68,4.68,0,0,0-.15-1.19,5,5,0,0,0-4.87-3.82l-.43,0h-.19l-5.51.36-10.28.65V101.9a.33.33,0,0,0,0,.06h0v6c.59.05,1.19.08,1.79.08s1.19,0,1.78-.08A19.65,19.65,0,0,0,120.24,88.43Zm-9.69-14.88,0,0a.24.24,0,0,1,.08-.06A.32.32,0,0,0,110.55,73.55Zm8.09,3.88v9.71A15.41,15.41,0,0,1,114.17,98a9.56,9.56,0,0,0,2.1-6V77.58a4.83,4.83,0,0,0-.13-1.15,5,5,0,0,0-3.82-3.75l-.19,0,.1,0a4.93,4.93,0,0,1,1.4-.19A5,5,0,0,1,118.64,77.43Z"/><path class="cls-2" d="M72.2,115.77a161.34,161.34,0,0,0-45.58,9.08c-2.91,1-5.77,2.14-8.6,3.34l-.62.26-.16.07a12.79,12.79,0,0,0-2.6,1.7,12.19,12.19,0,0,0-4,6.43c-.08.34-.14.69-.19,1,.31-.17.62-.36.94-.53,1.11-.63,2.22-1.25,3.34-1.84q6.09-3.26,12.47-6l1.13-.48a161.84,161.84,0,0,1,62.77-12.61c2,0,4.08,0,6.1.12q-8.09-.81-16.36-.82C78,115.53,75.09,115.61,72.2,115.77Z"/><path class="cls-2" d="M37.9,112.84,82,108.94l2.79-.24.17-3.06.26-5,1.24-22.87,0-.57a5.46,5.46,0,0,0-.39-2A5.52,5.52,0,0,0,81,71.69H44.51a5.49,5.49,0,0,0-5.44,4.62h0L38.21,81l-.55,3-4.52,24.87-.81,4.45ZM75.65,76a6.41,6.41,0,0,1,1.59-.19,6.54,6.54,0,0,1,5.88,3.67A6.41,6.41,0,0,1,83.77,82c0,.13,0,.26,0,.4a6.79,6.79,0,0,1,0,.78L82.92,97l-.53,9-3.17.28L80.58,88l.36-4.86,0-.34v-.05a2.62,2.62,0,0,0,0-.28A6.56,6.56,0,0,0,75.65,76l-.08,0s0,0,0,0ZM53,74.83a8.42,8.42,0,0,1,3.1.58A8.49,8.49,0,0,0,48,81.49h0s0,0,0,0l-.32,1.79-1,5.68L43.6,106.11l-3.37.3,4.25-23.67.13-.69s0,0,0-.06A8.49,8.49,0,0,1,53,74.83Z"/><path class="cls-2" d="M14.39,118.55h0l1.12-.38,7.55-2.57,3.6-15.5,2.38-10.2.69-3,1.44-6.17L32.77,74l-8,2.17-.13.16-1.73,6.3-.46,1.67-6.19,22.5-3.36,12.21.06,0A11,11,0,0,1,14.39,118.55Z"/><polygon class="cls-3" points="327.98 265.42 327.98 267.85 332.73 267.85 332.73 281.14 335.37 281.14 335.37 267.85 340.16 267.85 340.16 265.42 327.98 265.42"/><path class="cls-3" d="M250.55,236.62q16.05,15.65,40.84,15.65t43.07-20.57l-15.35-15.82a35.45,35.45,0,0,1-19.65,12.83,38.74,38.74,0,0,1-9.22,1.14,29.9,29.9,0,0,1-22-9q-9.06-9.06-9-24a33.19,33.19,0,0,1,4.2-16.78,28.22,28.22,0,0,1,5.39-7,35.79,35.79,0,0,1,5.08-3.88,32.86,32.86,0,0,1,5.11-2.54,34.54,34.54,0,0,1,12.92-2.4,35.15,35.15,0,0,1,9.89,1.52,36.18,36.18,0,0,1,18.37,12.59l14.88-16.87c-.16-.19-.36-.32-.53-.51-1.33-1.46-2.68-2.84-4.08-4.14q-16.51-15.43-39.61-15.48-23.28,0-39.48,15.48c-.18.16-.35.33-.51.49-1.18,1.15-2,2.45-3.08,3.65a52.39,52.39,0,0,0-7,10.23,49.79,49.79,0,0,0-3.33,7.93,58.21,58.21,0,0,0-3,18.05,53.21,53.21,0,0,0,.38,6.38,63.1,63.1,0,0,0,2.35,11c.52,1.7,1.12,3.36,1.78,5a50.56,50.56,0,0,0,11.54,17.15Z"/><path class="cls-3" d="M301,270.55a4.65,4.65,0,0,0-1.54-3.89c-1.05-.81-2.75-1.25-5.16-1.25h-5.83v15.73h2.65v-5.3h3.48l3.76,5.3h3.38l-4.14-5.73Q301,274.43,301,270.55Zm-6.58,2.91h-3.3v-5.61h3.37a5.74,5.74,0,0,1,3,.54,2.41,2.41,0,0,1,.81,2.11,2.89,2.89,0,0,1-.81,2.26A5,5,0,0,1,294.43,273.46Z"/><path class="cls-3" d="M252.6,265.05h-.4a8.07,8.07,0,0,0-5.88,2.32,7.94,7.94,0,0,0-2.38,5.84v.12a7.9,7.9,0,0,0,2.38,5.66,8,8,0,0,0,5.88,2.32,8.77,8.77,0,0,0,.9,0,8.16,8.16,0,0,0,5-13.9A8,8,0,0,0,252.6,265.05Zm3.58,12.14a5.14,5.14,0,0,1-3.05,1.61,5.65,5.65,0,0,1-.93.07,5.22,5.22,0,0,1-3.94-1.68,5.53,5.53,0,0,1-1.59-4,5.6,5.6,0,0,1,1.59-4.06,5.25,5.25,0,0,1,3.94-1.67,5.49,5.49,0,0,1,.58,0,5.25,5.25,0,0,1,3.4,1.64,5.6,5.6,0,0,1,1.59,4.06A5.53,5.53,0,0,1,256.18,277.19Z"/><path class="cls-3" d="M221.75,161.2h17c.1-.17.22-.33.34-.5,1-1.36,1.94-2.69,3-4a63,63,0,0,1,97.58,0h0V0H179.31V161.19h3.94V143.91a7.18,7.18,0,0,1,7.18-7.17h24.16a7.16,7.16,0,0,1,7.16,7.17V161.2ZM324.42,46.89H192.16l30.23-5.35,102-18Zm0-31.26L218.48,34.26l-26.32,4.62V15.63H324.42Z"/><path class="cls-3" d="M210.34,265.41H205v15.73h2.64v-4.6h2.78a10.58,10.58,0,0,0,3.74-.55,5,5,0,0,0,1.39-.79,4.61,4.61,0,0,0,1.66-3.6c0-.18,0-.37,0-.57a5,5,0,0,0-1.65-4.2C214.47,265.9,212.74,265.41,210.34,265.41Zm3.35,7.89a4.21,4.21,0,0,1-3,.81h-3.08v-6.26h2.7a6.15,6.15,0,0,1,3.16.64,2.63,2.63,0,0,1,1,2.33A3.51,3.51,0,0,1,213.69,273.3Z"/><polygon class="cls-3" points="190.58 241.11 190.58 251.05 214.54 251.05 214.54 214.49 214.54 202.71 214.54 185.96 214.54 179.03 214.54 173.27 214.54 160.87 214.54 156.74 214.54 151.08 214.54 143.71 207.42 143.71 197.59 143.71 190.58 143.71 190.58 150.33 190.58 151.08 190.58 156.74 190.58 158.32 190.58 160.87 190.58 179.03 190.58 188.55 156.66 188.55 147.89 188.55 147.89 187.18 147.89 179.03 147.89 163.87 147.89 155.79 147.89 151.08 147.89 143.71 140.61 143.71 139.4 143.71 131.34 143.71 129.93 143.71 126.96 143.71 123.94 143.71 123.94 144.67 123.94 150.06 123.94 151.07 123.94 155.79 123.94 178.38 123.94 179.78 123.94 192.46 123.94 204.92 123.94 209.07 123.94 219.65 123.94 221.35 123.94 251.05 147.89 251.05 147.89 214.49 147.89 208.82 190.58 208.82 190.58 214.49 190.58 241.11"/><path class="cls-3" d="M172.17,272a12.13,12.13,0,0,1-3.16-1.09,1.76,1.76,0,0,1-.73-1.45A1.67,1.67,0,0,1,169,268a3.53,3.53,0,0,1,1.92-.48,7.51,7.51,0,0,1,2.35.43,5.4,5.4,0,0,1,1.89,1l1.41-2a7.86,7.86,0,0,0-2.57-1.4,9.34,9.34,0,0,0-3-.49,6.22,6.22,0,0,0-3.92,1.19,4,4,0,0,0-1.57,3.35,3.85,3.85,0,0,0,1.38,3.24,5.48,5.48,0,0,0,1.6.92,22.79,22.79,0,0,0,2.64.75,7.84,7.84,0,0,1,2.43.92,1.66,1.66,0,0,1,.71,1.41,1.59,1.59,0,0,1-.76,1.45,3.17,3.17,0,0,1-2,.6,7.46,7.46,0,0,1-4.94-2.1l-1.67,2a9.39,9.39,0,0,0,6.54,2.54,6.35,6.35,0,0,0,4.07-1.24,4.2,4.2,0,0,0,1.54-3.35,3.89,3.89,0,0,0-1.22-3.14A8.29,8.29,0,0,0,172.17,272Z"/><polygon class="cls-3" points="174.28 145.14 174.28 139.16 174.28 137.59 174.28 101.6 165.15 101.6 165.15 101.61 165.15 134.09 165.15 138.9 165.15 139.14 165.15 159.37 165.15 161.19 174.28 161.19 174.28 145.14"/><path class="cls-3" d="M102.16,143.6v-5.44a6.54,6.54,0,0,1,6.54-6.54h14.83a6.54,6.54,0,0,1,6.37,5.12h17.87a7.18,7.18,0,0,1,7.17,7.17v17.28h5.59l0-22.1v-7.3l-.07-40.62,0-14.68V50.86l.34-12.45.46-17.21.54-19.62c-.6,0-1.18,0-1.78,0A68.77,68.77,0,0,0,96.73,43.15c-.51,0-1,0-1.55,0a146.62,146.62,0,0,0-47.77,7.95c-1,.33-1.92.67-2.88,1A34.8,34.8,0,0,0,30,63.21h-.13A11.85,11.85,0,0,0,18,75.07c0,.42,0,.83.06,1.24h6.61l0-.07.09,0,8-2.17-1.56,6.72-1.44,6.17-.69,3-2.38,10.2-3.6,15.5-7.55,2.57-1.12.38h0L13,119l-.06,0a10.39,10.39,0,0,0-5.41,5.46l-.19.46c-1,2.62-1.92,5.28-2.73,8-.19.63-.37,1.28-.55,1.92-.73,2.61-1.37,5.27-1.9,8A111.6,111.6,0,0,0,.7,177.13a65.39,65.39,0,0,1,16.86-24.78q.69-.65,1.41-1.26a65.43,65.43,0,0,1,91.14,5.26H117v-6.21h-8.3A6.53,6.53,0,0,1,102.16,143.6ZM98.81,108V71.38l10.28-.65,5.51-.36.18,0,.44,0a5,5,0,0,1,4.87,3.82,4.68,4.68,0,0,1,.15,1.19V88.43A19.65,19.65,0,0,1,102.38,108c-.59.05-1.18.08-1.78.08s-1.2,0-1.79-.08Zm32.33-87.48A28.69,28.69,0,0,0,117,42.76H106A28.71,28.71,0,0,1,131.14,20.48Zm-65.5,30a83,83,0,0,1,21.8-2.89c1.69,0,3.37,0,5,.16a82.27,82.27,0,0,0-43,15.15H39.43A82.61,82.61,0,0,1,65.64,50.49ZM37.66,84l.55-3,.85-4.71h0a5.49,5.49,0,0,1,5.44-4.62H81a5.52,5.52,0,0,1,5.14,3.5,5.46,5.46,0,0,1,.39,2l0,.57-1.24,22.87-.26,5-.17,3.06-2.79.24-44.11,3.9-5.57.5.81-4.45Zm53.49,32.21a161.84,161.84,0,0,0-62.77,12.61l-1.13.48q-6.37,2.75-12.47,6c-1.12.59-2.23,1.21-3.34,1.84-.32.17-.63.36-.94.53.05-.36.11-.71.19-1a12.19,12.19,0,0,1,4-6.43,12.79,12.79,0,0,1,2.6-1.7l.16-.07c.21-.1.41-.18.62-.26,2.83-1.2,5.69-2.31,8.6-3.34a161.34,161.34,0,0,1,45.58-9.08c2.89-.16,5.78-.24,8.69-.24q8.28,0,16.36.82C95.23,116.27,93.19,116.23,91.15,116.23Z"/><polygon class="cls-3" points="134.51 272.69 134.51 277.14 131.53 273.31 125.39 265.42 122.74 265.42 122.74 274.62 122.74 281.14 125.39 281.14 125.39 274.3 125.39 269.68 128.6 273.82 134.28 281.14 137.17 281.14 137.17 272.08 137.17 265.42 134.51 265.42 134.51 272.69"/><path class="cls-3" d="M116.14,76.43a4.83,4.83,0,0,1,.13,1.15V92a9.56,9.56,0,0,1-2.1,6,15.41,15.41,0,0,0,4.47-10.87V77.43a5,5,0,0,0-5-5,4.93,4.93,0,0,0-1.4.19l.09.06A5,5,0,0,1,116.14,76.43Z"/><path class="cls-3" d="M89,265.41H86.17l-2.84,6.47-4.07,9.26h2.83l1.56-3.57h7.86l1.6,3.57h2.81l-3.22-7.31Zm-4.27,9.68,1.15-2.59,1.71-3.84,2,4.63.79,1.8Z"/><path class="cls-3" d="M81,82.46a2.62,2.62,0,0,1,0,.28h0v.05l0,.34L80.58,88l-1.36,18.25,3.17-.28.53-9,.82-13.81,0-.78c0-.14,0-.27,0-.4a6.41,6.41,0,0,0-.65-2.47,6.54,6.54,0,0,0-5.88-3.67,6.41,6.41,0,0,0-1.59.19A6.56,6.56,0,0,1,81,82.46Z"/><path class="cls-3" d="M53,270.55a4.68,4.68,0,0,0-1.54-3.89c-1-.81-2.76-1.25-5.16-1.25H40.44v15.73h2.64v-5.3h3.49l3.75,5.3H53.7l-4.14-5.73C51.84,274.76,53,273.14,53,270.55Zm-6.59,2.91h-3.3v-5.61h3.38a5.72,5.72,0,0,1,3,.54,2.41,2.41,0,0,1,.81,2.11,2.89,2.89,0,0,1-.81,2.26A5,5,0,0,1,46.38,273.46Z"/><path class="cls-3" d="M32.72,182.16A28.31,28.31,0,0,1,39.4,173c.51-.45,1.06-.77,1.57-1.19a32.9,32.9,0,0,1,21.55-7.63,36.51,36.51,0,0,1,4.37.47,33.3,33.3,0,0,1,15.53,5.94,39.39,39.39,0,0,1,6.6,5.91c.57.64,1.2,1.11,1.75,1.79l2.2-2.48,6.93-7.86,5.77-6.53a65.08,65.08,0,0,0-6-5.59,61.52,61.52,0,0,0-7.15-5.43,56.26,56.26,0,0,0-31.09-9.11q-17.86,0-31.57,9.14a56.67,56.67,0,0,0-8.43,6.83c-.62.61-1.19,1.25-1.73,1.89-.93,1.09-1.79,2.24-2.68,3.35a52,52,0,0,0-3.69,5.18A45.35,45.35,0,0,0,11,171.77a55.44,55.44,0,0,0-5.93,25.31c0,.29,0,.57,0,.86a60.32,60.32,0,0,0,2.13,14.51,51.36,51.36,0,0,0,13.9,24.17,53.18,53.18,0,0,0,16.23,10.91A61.39,61.39,0,0,0,62,252.27c14.39,0,27-5.52,38.14-15.91,1.65-1.55,3.36-2.89,4.93-4.66L93.34,219.63l-3.64-3.75c-.44.54-1,.92-1.4,1.43a35.91,35.91,0,0,1-13.82,9.88,36.84,36.84,0,0,1-13.65,2.66A30,30,0,0,1,32.7,211.51a36.88,36.88,0,0,1-2.89-14.75,42.12,42.12,0,0,1,.46-6.27A31.61,31.61,0,0,1,32.72,182.16Z"/><polygon class="cls-3" points="0.76 267.85 5.51 267.85 5.51 281.14 8.16 281.14 8.16 267.85 12.94 267.85 12.94 265.42 0.76 265.42 0.76 267.85"/></g><polygon class="cls-2" points="12.93 119.06 23.1 115.59 21.05 114.59 13.59 118.31 12.93 119.06"/></svg>